<svg width="40" height="40" viewBox="0 0 40 40" fill="none" xmlns="http://www.w3.org/2000/svg">
<path id="inside" d="M34.6098 0H5.39012C2.4133 0 0 2.4132 0 5.39012V34.61C0 37.5869 2.4132 40.0001 5.39012 40.0001H19.8011L19.8257 25.7062H16.1121C15.6295 25.7062 15.2378 25.316 15.236 24.8334L15.2182 20.2259C15.2163 19.7406 15.6092 19.3463 16.0944 19.3463H19.8012V14.8943C19.8012 9.72775 22.9566 6.91454 27.5655 6.91454H31.3474C31.8313 6.91454 32.2237 7.30682 32.2237 7.79079V11.6759C32.2237 12.1596 31.8316 12.5518 31.3479 12.5521L29.027 12.5532C26.5205 12.5532 26.0352 13.7442 26.0352 15.4921V19.3464H31.5427C32.0675 19.3464 32.4747 19.8046 32.4128 20.3258L31.8667 24.9333C31.8145 25.3742 31.4406 25.7064 30.9966 25.7064H26.0598L26.0352 40.0003H34.61C37.5868 40.0003 40 37.5871 40 34.6103V5.39012C39.9999 2.4132 37.5867 0 34.6098 0Z" fill="#349937"/>
</svg>
