<svg width="40" height="40" viewBox="0 0 40 40" fill="none" xmlns="http://www.w3.org/2000/svg">
<g id="inside">
<path d="M20.0558 15.0957C26.5454 15.0957 26.5538 24.9122 20.0558 24.9122C13.5678 24.9122 13.5579 15.0957 20.0558 15.0957Z" fill="#349937"/>
<path fill-rule="evenodd" clip-rule="evenodd" d="M21.1042 7.91704C20.3618 7.92403 19.5733 7.93146 18.7363 7.93278V7.92946C8.91789 7.93943 7.98724 8.12552 7.98724 19.9973C7.98724 31.7328 8.3246 32.0685 20.0575 32.0685C20.6495 32.0685 21.2314 32.0749 21.8003 32.0811C27.4139 32.1427 31.7561 32.1904 32.0413 25.949C32.8666 7.80628 31.5254 7.81891 21.1042 7.91704ZM26.1499 12.1432C26.1499 11.1678 26.941 10.3769 27.9165 10.3769C28.892 10.3769 29.6831 11.1678 29.6831 12.1432C29.6831 13.1185 28.892 13.9094 27.9165 13.9094C26.941 13.9094 26.1499 13.1185 26.1499 12.1432ZM12.4943 20.004C12.4943 15.8285 15.8795 12.4422 20.0558 12.4422C24.2321 12.4422 27.6157 15.8285 27.6157 20.004C27.6157 24.1794 24.2321 27.564 20.0558 27.564C15.8795 27.564 12.4943 24.1794 12.4943 20.004Z" fill="#349937"/>
<path fill-rule="evenodd" clip-rule="evenodd" d="M0.0852067 15.466C0.00775792 8.38871 -0.0237296 5.51137 2.60919 2.77708C5.3724 -0.0874567 8.38997 -0.0622644 18.9568 0.0259532C21.1449 0.0442203 23.6566 0.0651897 26.5569 0.0637645C31.2351 0.0719188 31.5008 0.110487 32.3875 0.239173L32.4382 0.246535C36.4916 0.82974 39.5677 3.70921 39.9599 8.7055C40.0131 9.37344 40.0131 30.6264 39.9616 31.281C39.5926 35.9716 36.8937 38.6616 33.5766 39.5173C31.0921 40.1603 9.04897 40.1603 6.56114 39.5206C-0.28824 37.7508 -0.123988 31.0392 0.0568953 23.6481C0.0864115 22.442 0.11637 21.2178 0.11637 19.9941C0.11637 18.3137 0.0999553 16.8137 0.0852067 15.466ZM18.6001 5.2723C19.0812 5.27577 19.5659 5.27927 20.0527 5.27929C20.6317 5.27927 21.1916 5.27549 21.7333 5.27183C26.4378 5.24008 29.7709 5.21758 32.3039 7.75001C34.827 10.2711 34.809 13.5489 34.7825 18.4066C34.7796 18.921 34.7767 19.4531 34.7767 20.004C34.7767 20.5134 34.7786 21.0039 34.7803 21.4768C34.7936 25.0264 34.8032 27.5802 34.004 29.6476C31.9827 34.8325 26.8456 34.7858 21.572 34.7378C21.0659 34.7332 20.5585 34.7286 20.0525 34.7286C19.5678 34.7286 19.0845 34.7321 18.6043 34.7356C13.1516 34.7754 8.10966 34.8122 6.10267 29.6476C5.30492 27.5943 5.31554 24.5411 5.32709 21.2184C5.32848 20.8171 5.32989 20.4118 5.32989 20.004C5.32989 19.5018 5.32811 19.0174 5.3264 18.5495C5.31336 14.9986 5.30384 12.4082 6.10267 10.3586C8.11443 5.1966 13.1182 5.23272 18.6001 5.2723Z" fill="#349937"/>
</g>
</svg>
