<svg width="89" height="42" viewBox="0 0 89 42" fill="none" xmlns="http://www.w3.org/2000/svg">
<path d="M0.39006 38.4205C0.216266 38.3117 0.127441 38.1795 0.127441 38.0241V22.8411C0.127441 22.6701 0.208547 22.5302 0.370754 22.4213C0.532962 22.3125 0.753105 22.2581 1.02731 22.2581H17.3523C17.6265 22.2581 17.8544 22.3125 18.0282 22.4213C18.202 22.5302 18.2908 22.6701 18.2908 22.8411V24.5203C18.2908 24.6758 18.202 24.808 18.0282 24.9168C17.8544 25.0257 17.6265 25.0801 17.3523 25.0801H5.34125V29.4647H16.5992C16.8734 29.4647 17.1013 29.5191 17.2751 29.628C17.4489 29.7368 17.5377 29.869 17.5377 30.0244V31.7037C17.5377 31.8591 17.4489 31.9913 17.2751 32.1001C17.1013 32.209 16.8734 32.2634 16.5992 32.2634H5.34125V38.0241C5.34125 38.1795 5.25242 38.3117 5.07863 38.4205C4.90484 38.5294 4.67697 38.5838 4.40277 38.5838H1.02345C0.780136 38.5838 0.563854 38.5294 0.39006 38.4205Z" fill="white"/>
<path d="M22.5702 38.4209C22.3965 38.312 22.3076 38.1799 22.3076 38.0244V22.5849C22.3076 22.4139 22.3965 22.2778 22.5702 22.1767C22.744 22.0757 22.9565 22.0251 23.2075 22.0251H26.3589C26.6332 22.0251 26.8533 22.0757 27.0155 22.1767C27.1777 22.2778 27.2588 22.4139 27.2588 22.5849V38.0244C27.2588 38.1799 27.1777 38.312 27.0155 38.4209C26.8533 38.5297 26.6332 38.5841 26.3589 38.5841H23.2075C22.9603 38.5841 22.7479 38.5297 22.5702 38.4209Z" fill="white"/>
<path d="M54.7722 38.4208C54.5984 38.3119 54.5095 38.1798 54.5095 38.0243V27.0394C54.5095 26.8683 54.5984 26.7284 54.7722 26.6196C54.9459 26.5107 55.1584 26.4563 55.4094 26.4563H58.4875C58.7617 26.4563 58.9857 26.5107 59.1633 26.6196C59.3371 26.7284 59.426 26.8683 59.426 27.0394V27.9956C60.6773 26.9694 62.477 26.4563 64.829 26.4563H66.4047C66.6789 26.4563 66.8991 26.5068 67.0613 26.6079C67.2235 26.709 67.3046 26.845 67.3046 27.016V28.7186C67.3046 28.8741 67.2235 29.0062 67.0613 29.1151C66.8991 29.2239 66.6789 29.2783 66.4047 29.2783H63.4386C62.2607 29.2783 61.3377 29.4882 60.6618 29.908C59.986 30.3278 59.6499 30.9031 59.6499 31.6339V38.0243C59.6499 38.1798 59.5611 38.3119 59.3873 38.4208C59.2135 38.5296 59.0011 38.584 58.7501 38.584H55.4094C55.1584 38.584 54.9459 38.5296 54.7722 38.4208Z" fill="white"/>
<path d="M73.9705 38.3395C72.9084 38.0207 72.0703 37.5892 71.4563 37.0451C70.8422 36.5009 70.5371 35.9022 70.5371 35.2492C70.5371 34.1919 71.2246 33.3368 72.5994 32.6837C73.9743 32.0307 75.8629 31.5876 78.2651 31.3544L83.4055 30.8879V30.3981C83.4055 29.7295 83.1313 29.2242 82.579 28.8822C82.0268 28.5401 81.1539 28.3691 79.9528 28.3691C79.1263 28.3691 78.4621 28.4623 77.9639 28.6489C77.4618 28.8355 77.0563 29.026 76.7434 29.2203C76.4306 29.4147 76.2221 29.543 76.1255 29.6052C76.0251 29.7917 75.8359 29.885 75.5617 29.885H72.6342C72.4102 29.885 72.2132 29.8384 72.051 29.7451C71.8888 29.6518 71.8077 29.5274 71.8077 29.3719C71.8309 28.9832 72.1399 28.544 72.7269 28.0542C73.3139 27.5644 74.2215 27.1369 75.4458 26.7715C76.6701 26.4061 78.184 26.2234 79.9876 26.2234C82.9382 26.2234 85.0932 26.6354 86.4411 27.4595C87.7928 28.2835 88.4687 29.3642 88.4687 30.7013V38.0246C88.4687 38.1801 88.3876 38.3122 88.2253 38.4211C88.0631 38.5299 87.843 38.5843 87.5688 38.5843H84.4521C84.2011 38.5843 83.9887 38.5299 83.8149 38.4211C83.6411 38.3122 83.5523 38.1801 83.5523 38.0246V37.115C83 37.6126 82.2276 38.0207 81.2234 38.3395C80.2232 38.6582 78.9719 38.8176 77.4695 38.8176C76.2028 38.8176 75.0326 38.6582 73.9705 38.3395ZM82.131 35.739C83.0077 35.1793 83.4441 34.3707 83.4441 33.3134V32.847L79.6902 33.2202C76.813 33.5 75.3724 34.0986 75.3724 35.016C75.3724 35.5135 75.7045 35.8984 76.3688 36.1705C77.0292 36.4426 77.8248 36.5786 78.7517 36.5786C80.1305 36.5786 81.2543 36.2987 82.131 35.739Z" fill="white"/>
<path d="M55.4212 20.8784L46.438 25.1153" stroke="white" stroke-width="0.75" stroke-miterlimit="10" stroke-linecap="round"/>
<path d="M55.7153 21.9179C56.3141 21.8415 56.738 21.2909 56.6621 20.6881C56.5861 20.0854 56.0391 19.6587 55.4403 19.7351C54.8414 19.8116 54.4175 20.3622 54.4934 20.9649C54.5694 21.5677 55.1164 21.9943 55.7153 21.9179Z" fill="white"/>
<path d="M46.677 25.6285C46.9512 25.4991 47.0693 25.1704 46.9407 24.8944C46.8121 24.6184 46.4856 24.4996 46.2114 24.629C45.9371 24.7584 45.8191 25.087 45.9476 25.363C46.0762 25.639 46.4028 25.7579 46.677 25.6285Z" fill="white"/>
<path d="M41.0583 19.9954V40.9001" stroke="white" stroke-width="0.75" stroke-miterlimit="10" stroke-linecap="round"/>
<path d="M51.4429 30.4478H41.5212H30.6726" stroke="white" stroke-width="0.75" stroke-miterlimit="10" stroke-linecap="round"/>
<path d="M33.7163 37.8369L41.4559 30.0471" stroke="white" stroke-width="0.75" stroke-miterlimit="10" stroke-linecap="round"/>
<path d="M33.7163 23.0581L48.3999 37.8367" stroke="white" stroke-width="0.75" stroke-miterlimit="10" stroke-linecap="round"/>
<path d="M38.5979 23.6414L43.5182 37.254" stroke="white" stroke-width="0.75" stroke-miterlimit="10" stroke-linecap="round"/>
<path d="M34.2959 27.9717L47.8209 32.9238" stroke="white" stroke-width="0.75" stroke-miterlimit="10" stroke-linecap="round"/>
<path d="M34.2959 32.9238L47.8209 27.9717" stroke="white" stroke-width="0.75" stroke-miterlimit="10" stroke-linecap="round"/>
<path d="M38.5979 37.254L43.5182 23.6414" stroke="white" stroke-width="0.75" stroke-miterlimit="10" stroke-linecap="round"/>
<path d="M34.288 29.0912C34.8938 29.0912 35.3848 28.5969 35.3848 27.9872C35.3848 27.3775 34.8938 26.8833 34.288 26.8833C33.6822 26.8833 33.1912 27.3775 33.1912 27.9872C33.1912 28.5969 33.6822 29.0912 34.288 29.0912Z" fill="white"/>
<path d="M34.3383 34.0316C34.944 34.0316 35.4351 33.5373 35.4351 32.9277C35.4351 32.318 34.944 31.8237 34.3383 31.8237C33.7325 31.8237 33.2415 32.318 33.2415 32.9277C33.2415 33.5373 33.7325 34.0316 34.3383 34.0316Z" fill="white"/>
<path d="M38.6286 38.4286C39.2343 38.4286 39.7254 37.9343 39.7254 37.3246C39.7254 36.7149 39.2343 36.2207 38.6286 36.2207C38.0228 36.2207 37.5317 36.7149 37.5317 37.3246C37.5317 37.9343 38.0228 38.4286 38.6286 38.4286Z" fill="white"/>
<path d="M43.5878 38.4286C44.1936 38.4286 44.6846 37.9343 44.6846 37.3246C44.6846 36.7149 44.1936 36.2207 43.5878 36.2207C42.982 36.2207 42.491 36.7149 42.491 37.3246C42.491 37.9343 42.982 38.4286 43.5878 38.4286Z" fill="white"/>
<path d="M47.9015 34.0824C48.5073 34.0824 48.9983 33.5881 48.9983 32.9784C48.9983 32.3688 48.5073 31.8745 47.9015 31.8745C47.2958 31.8745 46.8047 32.3688 46.8047 32.9784C46.8047 33.5881 47.2958 34.0824 47.9015 34.0824Z" fill="white"/>
<path d="M47.8048 29.1102C48.4106 29.1102 48.9017 28.616 48.9017 28.0063C48.9017 27.3966 48.4106 26.9023 47.8048 26.9023C47.1991 26.9023 46.708 27.3966 46.708 28.0063C46.708 28.616 47.1991 29.1102 47.8048 29.1102Z" fill="white"/>
<path d="M43.5878 24.7647C44.1936 24.7647 44.6846 24.2705 44.6846 23.6608C44.6846 23.0511 44.1936 22.5569 43.5878 22.5569C42.982 22.5569 42.491 23.0511 42.491 23.6608C42.491 24.2705 42.982 24.7647 43.5878 24.7647Z" fill="white"/>
<path d="M38.652 24.7923C39.2578 24.7923 39.7488 24.2981 39.7488 23.6884C39.7488 23.0787 39.2578 22.5845 38.652 22.5845C38.0462 22.5845 37.5552 23.0787 37.5552 23.6884C37.5552 24.2981 38.0462 24.7923 38.652 24.7923Z" fill="white"/>
<path d="M31.5109 27.3959C32.1167 27.3959 32.6077 26.9016 32.6077 26.2919C32.6077 25.6822 32.1167 25.188 31.5109 25.188C30.9051 25.188 30.4141 25.6822 30.4141 26.2919C30.4141 26.9016 30.9051 27.3959 31.5109 27.3959Z" fill="white"/>
<path d="M31.5497 35.8119C32.1555 35.8119 32.6465 35.3176 32.6465 34.7079C32.6465 34.0983 32.1555 33.604 31.5497 33.604C30.9439 33.604 30.4529 34.0983 30.4529 34.7079C30.4529 35.3176 30.9439 35.8119 31.5497 35.8119Z" fill="white"/>
<path d="M37.0106 41.2652C37.6164 41.2652 38.1075 40.771 38.1075 40.1613C38.1075 39.5516 37.6164 39.0574 37.0106 39.0574C36.4049 39.0574 35.9138 39.5516 35.9138 40.1613C35.9138 40.771 36.4049 41.2652 37.0106 41.2652Z" fill="white"/>
<path d="M37.0609 21.8341C37.6667 21.8341 38.1578 21.3398 38.1578 20.7302C38.1578 20.1205 37.6667 19.6262 37.0609 19.6262C36.4552 19.6262 35.9641 20.1205 35.9641 20.7302C35.9641 21.3398 36.4552 21.8341 37.0609 21.8341Z" fill="white"/>
<path d="M50.5358 27.3959C51.1416 27.3959 51.6327 26.9016 51.6327 26.2919C51.6327 25.6822 51.1416 25.188 50.5358 25.188C49.9301 25.188 49.439 25.6822 49.439 26.2919C49.439 26.9016 49.9301 27.3959 50.5358 27.3959Z" fill="white"/>
<path d="M50.4968 35.8119C51.1026 35.8119 51.5936 35.3176 51.5936 34.7079C51.5936 34.0983 51.1026 33.604 50.4968 33.604C49.891 33.604 49.3999 34.0983 49.3999 34.7079C49.3999 35.3176 49.891 35.8119 50.4968 35.8119Z" fill="white"/>
<path d="M45.0358 41.2652C45.6416 41.2652 46.1326 40.771 46.1326 40.1613C46.1326 39.5516 45.6416 39.0574 45.0358 39.0574C44.43 39.0574 43.939 39.5516 43.939 40.1613C43.939 40.771 44.43 41.2652 45.0358 41.2652Z" fill="white"/>
<path d="M44.9857 21.8341C45.5915 21.8341 46.0826 21.3398 46.0826 20.7302C46.0826 20.1205 45.5915 19.6262 44.9857 19.6262C44.38 19.6262 43.8889 20.1205 43.8889 20.7302C43.8889 21.3398 44.38 21.8341 44.9857 21.8341Z" fill="white"/>
<path d="M41.112 31.6173C41.7177 31.6173 42.2088 31.123 42.2088 30.5134C42.2088 29.9037 41.7177 29.4094 41.112 29.4094C40.5062 29.4094 40.0151 29.9037 40.0151 30.5134C40.0151 31.123 40.5062 31.6173 41.112 31.6173Z" fill="white"/>
<path d="M41.0697 21.1732C41.6755 21.1732 42.1666 20.679 42.1666 20.0693C42.1666 19.4596 41.6755 18.9653 41.0697 18.9653C40.464 18.9653 39.9729 19.4596 39.9729 20.0693C39.9729 20.679 40.464 21.1732 41.0697 21.1732Z" fill="white"/>
<path d="M33.7433 24.1736C34.3491 24.1736 34.8401 23.6794 34.8401 23.0697C34.8401 22.4601 34.3491 21.9658 33.7433 21.9658C33.1376 21.9658 32.6465 22.4601 32.6465 23.0697C32.6465 23.6794 33.1376 24.1736 33.7433 24.1736Z" fill="white"/>
<path d="M30.6845 31.5475C31.2902 31.5475 31.7813 31.0532 31.7813 30.4435C31.7813 29.8339 31.2902 29.3396 30.6845 29.3396C30.0787 29.3396 29.5876 29.8339 29.5876 30.4435C29.5876 31.0532 30.0787 31.5475 30.6845 31.5475Z" fill="white"/>
<path d="M33.7433 38.9217C34.3491 38.9217 34.8401 38.4275 34.8401 37.8178C34.8401 37.2081 34.3491 36.7139 33.7433 36.7139C33.1376 36.7139 32.6465 37.2081 32.6465 37.8178C32.6465 38.4275 33.1376 38.9217 33.7433 38.9217Z" fill="white"/>
<path d="M41.0697 42.0001C41.6755 42.0001 42.1666 41.5059 42.1666 40.8962C42.1666 40.2865 41.6755 39.7922 41.0697 39.7922C40.464 39.7922 39.9729 40.2865 39.9729 40.8962C39.9729 41.5059 40.464 42.0001 41.0697 42.0001Z" fill="white"/>
<path d="M48.4462 38.9488C49.052 38.9488 49.543 38.4546 49.543 37.8449C49.543 37.2352 49.052 36.741 48.4462 36.741C47.8404 36.741 47.3494 37.2352 47.3494 37.8449C47.3494 38.4546 47.8404 38.9488 48.4462 38.9488Z" fill="white"/>
<path d="M51.4818 31.5751C52.0876 31.5751 52.5787 31.0808 52.5787 30.4711C52.5787 29.8614 52.0876 29.3672 51.4818 29.3672C50.8761 29.3672 50.385 29.8614 50.385 30.4711C50.385 31.0808 50.8761 31.5751 51.4818 31.5751Z" fill="white"/>
<path d="M81.0883 5.93948C81.0883 4.40407 79.8215 3.38565 77.6472 3.38565C75.6273 3.38565 73.6113 4.21749 73.3255 6.79852H68.1503C68.3588 1.61703 72.5762 0 77.4656 0C83.9848 0 86.2635 3.09801 86.2635 6.01722C86.2635 9.58557 83.4673 10.7828 78.5277 12.2949L76.4306 12.944C75.3183 13.3366 73.9473 13.9352 73.144 15.0003H86.1592V18.5414H67.683C68.0962 7.71199 81.0883 10.3941 81.0883 5.93948ZM4.38732 18.1566V11.6146C6.80885 11.6146 14.0425 11.6146 20.6081 11.6107C22.0757 11.6107 23.5124 11.6107 24.8525 11.6107C26.0652 11.6107 27.1968 11.6107 28.2087 11.6107C30.8503 11.6107 32.6539 11.6107 32.8007 11.6146C34.1949 11.6263 37.2343 11.8129 41.977 12.909C48.8322 14.495 62.9944 18.833 63.1373 18.8757L64.1492 15.5328C63.6046 15.3657 51.5433 11.6729 44.2633 9.86544C51.5433 8.05794 63.6046 4.3652 64.1492 4.19805L63.1373 0.855159C62.9944 0.897917 48.8322 5.23591 41.977 6.82184C37.2382 7.918 34.1949 8.10458 32.8007 8.11624C32.6616 8.11624 31.0743 8.12013 28.6412 8.12013C26.212 8.12013 22.9832 8.12013 19.6541 8.12013C14.4596 8.12013 8.71285 8.12013 4.38732 8.11624V1.57038H0V18.1605H4.38732V18.1566Z" fill="white"/>
<path d="M81.0883 5.93948C81.0883 4.40407 79.8215 3.38565 77.6472 3.38565C75.6273 3.38565 73.6113 4.21749 73.3255 6.79852H68.1503C68.3588 1.61703 72.5762 0 77.4656 0C83.9848 0 86.2635 3.09801 86.2635 6.01722C86.2635 9.58557 83.4673 10.7828 78.5277 12.2949L76.4306 12.944C75.3183 13.3366 73.9473 13.9352 73.144 15.0003H86.1592V18.5414H67.683C68.0962 7.71199 81.0883 10.3941 81.0883 5.93948ZM4.38732 18.1566V11.6146C6.80885 11.6146 14.0425 11.6146 20.6081 11.6107C22.0757 11.6107 23.5124 11.6107 24.8525 11.6107C26.0652 11.6107 27.1968 11.6107 28.2087 11.6107C30.8503 11.6107 32.6539 11.6107 32.8007 11.6146C34.1949 11.6263 37.2343 11.8129 41.977 12.909C48.8322 14.495 62.9944 18.833 63.1373 18.8757L64.1492 15.5328C63.6046 15.3657 51.5433 11.6729 44.2633 9.86544C51.5433 8.05794 63.6046 4.3652 64.1492 4.19805L63.1373 0.855159C62.9944 0.897917 48.8322 5.23591 41.977 6.82184C37.2382 7.918 34.1949 8.10458 32.8007 8.11624C32.6616 8.11624 31.0743 8.12013 28.6412 8.12013C26.212 8.12013 22.9832 8.12013 19.6541 8.12013C14.4596 8.12013 8.71285 8.12013 4.38732 8.11624V1.57038H0V18.1605H4.38732V18.1566Z" fill="white"/>
</svg>
