<svg width="31" height="31" viewBox="0 0 31 31" fill="none" xmlns="http://www.w3.org/2000/svg">
<path d="M30.5137 0.937988H0.513672V30.938H30.5137V0.937988Z" fill="#15A338"/>
<path d="M5.39612 18.8358H5.45794C5.82885 18.3103 6.3543 17.6612 6.78703 17.1362L11.1757 11.9753H14.4516L8.67203 18.1253L15.2548 26.9331H11.9479L6.78658 19.7631L5.39567 21.3081V26.9331H2.70703V4.98987H5.39612V18.8358Z" fill="white"/>
<path d="M16.3379 26.933V25.2639L18.4706 23.1935C23.6011 18.3099 25.9193 15.7139 25.9502 12.6853C25.9502 10.6453 24.9611 8.7603 21.9633 8.7603C20.1397 8.7603 18.6252 9.68758 17.6983 10.4603L16.8329 8.54394C18.2238 7.3694 20.2015 6.50439 22.5197 6.50439C26.847 6.50439 28.6697 9.47121 28.6697 12.3453C28.6697 16.0539 25.9811 19.0521 21.747 23.1312L20.1402 24.6148V24.6771H29.1647V26.933H16.3379Z" fill="white"/>
</svg>
